PathFileType	4	(X/Y/Z)	C:/Users/opensim2020/Desktop/walking_exp_matlab/subject02_walking04_straight_01.trc																																																																																																																												
DataRate	CameraRate	NumFrames	NumMarkers	Units	OrigDataRate	OrigDataStartFrame	OrigNumFrames																																																																																																																								
100	100	7	42	mm	100	764	302																																																																																																																								
Frame#	Time	LFHD			RFHD			LBHD			RBHD			C7			T10			CLAV			STRN			RBAK			LSHO			LUPA			LELB			LFRM			LWRA			LWRB			LFIN			RSHO			RUPA			RELB			RFRM			RWRA			RWRB			RFIN			LASI			RASI			LPSI			RPSI			LTHI			LKNE			LTIB			LANK			LHEE			LTOE			RTHI			RKNE			RTIB			RANK			RHEE			RTOE			*39			*40			*41		
		X1	Y1	Z1	X2	Y2	Z2	X3	Y3	Z3	X4	Y4	Z4	X5	Y5	Z5	X6	Y6	Z6	X7	Y7	Z7	X8	Y8	Z8	X9	Y9	Z9	X10	Y10	Z10	X11	Y11	Z11	X12	Y12	Z12	X13	Y13	Z13	X14	Y14	Z14	X15	Y15	Z15	X16	Y16	Z16	X17	Y17	Z17	X18	Y18	Z18	X19	Y19	Z19	X20	Y20	Z20	X21	Y21	Z21	X22	Y22	Z22	X23	Y23	Z23	X24	Y24	Z24	X25	Y25	Z25	X26	Y26	Z26	X27	Y27	Z27	X28	Y28	Z28	X29	Y29	Z29	X30	Y30	Z30	X31	Y31	Z31	X32	Y32	Z32	X33	Y33	Z33	X34	Y34	Z34	X35	Y35	Z35	X36	Y36	Z36	X37	Y37	Z37	X38	Y38	Z38	X39	Y39	Z39	X40	Y40	Z40	X41	Y41	Z41	X42	Y42	Z42
																																																																																																																															
38	0.37	-1226.96497	1729.45703	-1002.84564	-1239.00159	1701.23669	-858.87036	-1349.63391	1648.85889	-1027.45044	-1376.56152	1618.37915	-889.25323	-1409.8241	1516.35095	-954.13989	-1494.29419	1250.54297	-939.47046	-1280.20886	1433.55774	-974.5343	-1249.49988	1256.802	-971.79535	-1481.7113	1353.61829	-881.20026	-1349.0802	1485.21851	-1140.05811	-1389.17676	1292.43347	-1229.62097	-1413.51147	1153.87085	-1249.06104	-1412.72424	1020.65601	-1266.47827	-1366.14099	894.45239	-1242.10364	-1411.79834	898.80219	-1271.97363	-1393.46057	835.66797	-1279.61157	-1314.39526	1471.35437	-775.49243	-1345.00391	1280.59192	-689.85059	-1339.77136	1133.53467	-679.15259	-1315.33362	1016.2749	-662.44641	-1270.30237	889.07922	-684.27283	-1316.82019	886.1731	-650.9646	-1278.62549	824.29315	-648.83679	-1305.38342	964.87921	-1092.58496	-1266.93079	965.8902	-841.34857	-1497.08972	1025.35022	-986.52301	-1485.09644	1030.03748	-870.73535	-1402.56824	656.3999	-1143.08813	-1444.87268	470.33542	-1123.96021	-1591.99561	354.27341	-1101.24133	-1713.96228	170.5074	-1062.83081	-1740.28638	170.19481	-1001.10486	-1643.67114	31.84752	-1091.06824	-1296.96582	665.84479	-767.82025	-1268.88293	461.16272	-816.35083	-1302.75793	274.68921	-810.33643	-1323.16772	84.06545	-850.46106	-1360.23291	30.02533	-906.91455	-1170.38428	31.72927	-843.05902	-1338.5061	1783.60217	-917.0379	2845.88135	1033.78455	-3357.43579	NaN	NaN	NaN
39	0.38	-1220.03931	1730.58264	-1000.89648	-1231.95776	1702.5293	-856.9754	-1342.74146	1650.06348	-1025.27124	-1369.68884	1619.51953	-887.08484	-1403.40186	1517.60522	-951.61377	-1487.11426	1251.69434	-936.69788	-1273.2041	1435.02368	-972.33929	-1242.36377	1258.22095	-969.4906	-1471.7865	1353.36047	-878.74164	-1342.828	1486.7522	-1137.47046	-1383.35266	1294.29431	-1227.39502	-1407.46094	1155.59021	-1247.15088	-1407.60181	1023.60303	-1265.77979	-1359.4978	896.46399	-1241.50476	-1405.15356	900.41144	-1271.1156	-1387.01965	837.95605	-1279.78198	-1307.08582	1473.0564	-773.38696	-1336.28943	1282.27905	-687.29828	-1330.42822	1135.15503	-676.77814	-1304.78662	1017.97235	-660.07263	-1259.43958	890.90173	-682.00055	-1305.61682	887.95343	-648.50018	-1267.11926	826.2771	-646.55219	-1297.98242	966.84796	-1090.41431	-1259.69629	966.14191	-839.40289	-1489.81409	1026.47095	-984.42932	-1477.54883	1031.34082	-868.55542	-1389.36523	657.56146	-1143.36304	-1428.18567	471.21655	-1124.9563	-1575.87927	356.84219	-1102.75171	-1701.01611	176.23793	-1062.5304	-1726.5979	175.67482	-1000.57867	-1631.82092	37.5008	-1094.48083	-1292.9552	666.29675	-766.49072	-1266.88208	460.92294	-815.11621	-1302.13721	274.59659	-809.50458	-1323.14758	84.0303	-850.38654	-1360.33228	30.3254	-906.61096	-1170.32312	31.50674	-842.90106	-1331.45093	1784.87976	-914.94629	2845.08398	1033.81238	-3360.19849	NaN	NaN	NaN
40	0.39	-1213.1543	1731.79651	-999.05096	-1224.98523	1703.94336	-855.08618	-1335.90747	1651.23987	-1023.21613	-1362.56592	1620.97522	-884.93628	-1396.61792	1518.82397	-949.19629	-1480.02808	1252.81567	-934.0296	-1266.48389	1436.25684	-970.28577	-1235.40393	1259.63123	-967.38672	-1464.64832	1354.67908	-875.79834	-1336.51257	1488.1615	-1135.0918	-1377.66907	1295.99438	-1225.21826	-1402.05762	1157.64648	-1245.63013	-1401.37854	1025.04749	-1264.48438	-1352.97815	898.44476	-1241.12708	-1398.88037	902.1355	-1270.03577	-1380.25525	839.73505	-1279.00024	-1300.10193	1474.448	-771.3811	-1327.58777	1283.82776	-684.72516	-1320.5542	1136.66187	-674.28473	-1294.37415	1019.70575	-657.69104	-1248.05164	892.96857	-679.88715	-1294.24036	889.57892	-646.13757	-1255.27039	828.14136	-644.33551	-1290.36523	968.58484	-1088.67517	-1252.96082	966.13098	-837.74072	-1482.65894	1027.43738	-982.46643	-1470.32617	1032.55139	-866.66699	-1376.28369	658.95087	-1143.67578	-1411.5564	472.36172	-1125.78308	-1559.86157	359.52994	-1103.9696	-1687.46326	181.04678	-1061.50439	-1712.35352	179.99556	-999.61182	-1617.83374	43.2367	-1097.04871	-1288.76343	666.69989	-765.20679	-1266.0675	460.9812	-813.81903	-1301.71936	274.5408	-808.69904	-1323.12744	84.03579	-850.26746	-1360.37671	30.26198	-906.77002	-1170.48022	31.29282	-842.49646	-1324.54578	1786.22168	-913.09283	2845.7583	1033.92444	-3357.3811	NaN	NaN	NaN
41	0.4	-1206.39441	1733.06213	-997.36871	-1218.08032	1705.32129	-853.35242	-1329.11865	1652.43457	-1021.28876	-1355.63049	1622.30225	-882.90033	-1389.8042	1520.15491	-946.89514	-1473.06641	1254.04236	-931.51758	-1259.76965	1437.59534	-968.15527	-1228.58948	1260.84424	-965.45972	-1460.1062	1357.42468	-872.54822	-1330.41687	1489.49402	-1132.85767	-1371.93787	1297.38416	-1223.02185	-1396.76819	1159.38342	-1244.2533	-1395.55249	1026.66162	-1263.09924	-1346.4054	900.21338	-1240.42188	-1392.73901	903.74963	-1268.9967	-1373.87268	841.51538	-1278.25916	-1292.64673	1475.97839	-769.39014	-1318.68542	1285.11108	-682.44415	-1310.92993	1137.98279	-671.7981	-1283.6908	1021.20966	-655.40692	-1236.78809	894.65747	-677.74689	-1282.48779	891.02478	-643.86084	-1243.19849	829.95721	-642.20007	-1283.30737	970.32916	-1087.17004	-1246.1731	966.28583	-835.8916	-1475.48401	1028.37219	-980.76398	-1463.48987	1033.6814	-864.93945	-1363.34021	660.67688	-1144.052	-1395.22607	473.94379	-1126.64099	-1543.87561	362.48462	-1104.09595	-1672.36121	185.0161	-1060.52893	-1697.04688	182.69934	-998.32635	-1602.36804	49.03419	-1099.69458	-1284.85339	667.01355	-763.84656	-1264.13391	460.41156	-812.91864	-1301.16992	274.40585	-807.94067	-1323.31116	84.05839	-850.13647	-1360.3551	30.41094	-906.5932	-1170.20532	31.14849	-842.40021	-1317.46204	1787.08252	-911.0191	2845.80444	1033.9303	-3357.52588	NaN	NaN	NaN
42	0.41	-1199.66357	1734.36743	-995.72144	-1211.26111	1706.63501	-851.75586	-1322.39099	1653.68213	-1019.42853	-1348.74255	1623.67371	-881.01544	-1382.89185	1521.56262	-944.71515	-1466.22791	1255.3584	-929.12256	-1253.0979	1438.8938	-966.17041	-1222.12964	1261.9425	-964.08875	-1450.4447	1357.49243	-870.36047	-1323.89734	1490.59448	-1130.8634	-1366.27148	1298.80798	-1220.99646	-1391.3186	1160.80396	-1242.46033	-1389.82043	1028.04016	-1261.66455	-1340.03308	901.85657	-1239.87476	-1386.85986	905.28003	-1267.95789	-1367.5769	843.13422	-1277.61011	-1285.72388	1477.0957	-767.44995	-1310.08862	1286.39038	-679.91083	-1301.33801	1139.22144	-669.3244	-1272.95068	1022.66296	-653.05048	-1225.08496	896.65771	-675.77661	-1270.88477	892.56903	-641.63605	-1230.68323	831.69025	-640.27374	-1276.17615	971.82574	-1085.9303	-1238.87878	966.69592	-833.88995	-1468.40845	1029.26001	-979.21368	-1456.92517	1034.6698	-863.46991	-1350.68774	662.74017	-1144.38684	-1378.67529	475.66486	-1127.29224	-1527.61157	365.43152	-1103.27466	-1656.0564	188.16447	-1059.71802	-1680.45007	184.19142	-997.08258	-1585.39612	53.65803	-1102.0155	-1280.797	667.15485	-762.66718	-1263.13098	460.00583	-811.92035	-1300.84387	274.37402	-807.3075	-1323.37402	84.17944	-850.02356	-1359.79797	29.81481	-906.41711	-1170.19971	31.02585	-842.15851	-1310.76038	1788.72119	-909.52209	2845.10742	1033.74609	-3360.21606	NaN	NaN	NaN
43	0.42	-1193.00598	1735.57898	-994.24487	-1204.41772	1708.08374	-850.23969	-1315.76318	1654.88806	-1017.67786	-1341.93127	1625.05969	-879.1712	-1375.73608	1522.79016	-942.67163	-1459.38354	1256.62292	-926.86487	-1246.32666	1440.25806	-964.42651	-1215.13794	1263.1322	-961.78143	-1443.50171	1358.94519	-867.80353	-1317.44409	1491.67505	-1129.03394	-1360.6051	1300.06726	-1219.02795	-1385.91846	1162.15039	-1240.62561	-1384.42615	1029.56494	-1260.10352	-1333.89111	903.34894	-1239.72107	-1381.27527	906.99536	-1266.65576	-1361.74792	844.79559	-1277.25928	-1277.4281	1478.33179	-765.7019	-1301.51526	1287.51208	-677.44336	-1291.77942	1140.4093	-666.84796	-1262.21301	1024.01001	-650.7467	-1213.66626	898.41895	-673.90717	-1258.82568	893.89038	-639.54694	-1218.57043	833.4455	-638.34192	-1267.65955	973.34247	-1084.85522	-1232.37708	967.04425	-832.11578	-1461.45996	1030.28784	-977.79877	-1450.58484	1035.56934	-862.1723	-1338.18579	664.89441	-1144.76123	-1362.25793	477.6217	-1127.81287	-1510.79321	367.80148	-1102.32166	-1638.90466	190.29695	-1059.27307	-1663.41516	185.32631	-996.44202	-1567.26624	57.49679	-1104.11157	-1277.15479	667.43378	-761.6463	-1261.94238	459.88736	-810.98541	-1300.505	274.29391	-806.86469	-1323.08398	84.02728	-849.96515	-1359.84009	29.89002	-906.38953	-1170.25586	30.89812	-842.01996	-1303.86108	1789.8501	-907.81903	2845.08472	1033.79382	-3360.19946	NaN	NaN	NaN
44	0.43	-1186.3689	1736.76514	-992.86157	-1197.67432	1709.50171	-848.7724	-1309.20764	1656.04968	-1016.03931	-1335.15112	1626.41333	-877.45886	-1368.92053	1524.09119	-940.66095	-1452.61145	1257.83801	-924.77161	-1239.67444	1441.5105	-962.6131	-1208.53613	1264.4259	-960.19141	-1439.07385	1361.67603	-865.00574	-1310.98804	1492.6925	-1127.30457	-1354.75769	1301.26233	-1216.98938	-1380.4679	1163.32312	-1238.66162	-1378.96521	1030.66699	-1259.1377	-1327.90857	904.70605	-1239.39661	-1376.44031	908.867	-1266.12341	-1356.22192	846.42908	-1276.78577	-1270.4657	1479.276	-763.99091	-1292.74402	1288.58411	-675.35632	-1282.12195	1141.5354	-664.495	-1251.41907	1025.52161	-648.82794	-1201.48315	900.5423	-672.08582	-1246.89209	895.45496	-637.50037	-1205.83484	835.5553	-636.47089	-1260.57141	974.66626	-1083.9071	-1225.80286	967.66376	-830.14325	-1454.47461	1031.27466	-976.55408	-1444.26221	1036.16272	-861.09357	-1325.8092	667.12427	-1145.01282	-1346.0553	479.77615	-1128.41907	-1493.57288	369.52219	-1101.64355	-1621.16956	191.29694	-1058.9502	-1645.89722	185.74939	-996.05096	-1547.94702	60.61263	-1105.93127	-1273.37524	667.34174	-760.67072	-1261.01709	459.68164	-810.22351	-1300.13025	274.14685	-806.51587	-1323.14026	84.05157	-849.99451	-1359.87769	29.81967	-906.65729	-1170.32898	30.79521	-841.87939	-1297.2406	1791.42664	-906.53583	2845.67114	1033.75977	-3357.3623	NaN	NaN	NaN
